<svg width="24" height="24" viewBox="0 0 24 24" fill="none" xmlns="http://www.w3.org/2000/svg">
<path fill-rule="evenodd" clip-rule="evenodd" d="M12 3.47937C7.81281 3.47937 4.28068 6.52132 4.56837 10.3097C4.60963 10.853 4.67131 11.326 4.75535 11.7013C5.17935 13.5948 6.51026 15.4758 8.00934 17.0726C9.49565 18.6558 11.0782 19.8875 11.8959 20.4848C11.9613 20.5326 12.0387 20.5326 12.1041 20.4848C12.9218 19.8875 14.5043 18.6558 15.9907 17.0726C17.4897 15.4758 18.8206 13.5948 19.2446 11.7013C19.3287 11.326 19.3904 10.853 19.4316 10.3097C19.7193 6.52132 16.1872 3.47937 12 3.47937ZM3.02115 10.4166C2.65409 5.5831 7.12259 2 12 2C16.8774 2 21.3459 5.5831 20.9789 10.4166C20.9349 10.9955 20.8664 11.5428 20.7617 12.0103C20.2534 14.2803 18.7089 16.3951 17.1464 18.0594C15.5712 19.7373 13.9062 21.0319 13.0474 21.6592C12.4254 22.1136 11.5746 22.1136 10.9526 21.6592C10.0938 21.0319 8.42877 19.7373 6.85358 18.0594C5.29114 16.3951 3.74659 14.2803 3.23828 12.0103C3.13359 11.5428 3.06511 10.9955 3.02115 10.4166Z" fill="#030D45"/>
<path fill-rule="evenodd" clip-rule="evenodd" d="M12 9.39685C11.286 9.39685 10.7073 9.94879 10.7073 10.6297C10.7073 11.3105 11.286 11.8625 12 11.8625C12.714 11.8625 13.2927 11.3105 13.2927 10.6297C13.2927 9.94879 12.714 9.39685 12 9.39685ZM9.15599 10.6297C9.15599 9.13176 10.4293 7.91748 12 7.91748C13.5707 7.91748 14.844 9.13176 14.844 10.6297C14.844 12.1275 13.5707 13.3418 12 13.3418C10.4293 13.3418 9.15599 12.1275 9.15599 10.6297Z" fill="#030D45"/>
</svg>
