<svg width="24" height="24" viewBox="0 0 24 24" fill="none" xmlns="http://www.w3.org/2000/svg">
<path fill-rule="evenodd" clip-rule="evenodd" d="M12 3.53846C7.32682 3.53846 3.53846 7.32682 3.53846 12C3.53846 16.6732 7.32682 20.4615 12 20.4615C16.6732 20.4615 20.4615 16.6732 20.4615 12C20.4615 7.32682 16.6732 3.53846 12 3.53846ZM2 12C2 6.47715 6.47715 2 12 2C17.5228 2 22 6.47715 22 12C22 17.5228 17.5228 22 12 22C6.47715 22 2 17.5228 2 12Z" fill="#030D45"/>
<path fill-rule="evenodd" clip-rule="evenodd" d="M12 16.359C12.4248 16.359 12.7692 16.0146 12.7692 15.5897V11.4872C12.7692 11.0623 12.4248 10.7179 12 10.7179C11.5752 10.7179 11.2308 11.0623 11.2308 11.4872V15.5897C11.2308 16.0146 11.5752 16.359 12 16.359Z" fill="#030D45"/>
<path d="M13.0256 8.41026C13.0256 7.84381 12.5664 7.38462 12 7.38462C11.4336 7.38462 10.9744 7.84381 10.9744 8.41026C10.9744 8.9767 11.4336 9.4359 12 9.4359C12.5664 9.4359 13.0256 8.9767 13.0256 8.41026Z" fill="#030D45"/>
</svg>
